<mxfile host="app.diagrams.net" modified="2024-05-28T21:15:38.029Z" agent="Mozilla/5.0 (Windows NT 10.0; Win64; x64) AppleWebKit/537.36 (KHTML, like Gecko) Chrome/125.0.0.0 Safari/537.36" etag="pyLnZKXaGHbeAwBGAGF3" version="24.4.9" type="device">
  <diagram name="Страница — 1" id="3Xd-cKFsy182j37AocjP">
    <mxGraphModel dx="600" dy="1514" grid="1" gridSize="10" guides="1" tooltips="1" connect="1" arrows="1" fold="1" page="1" pageScale="1" pageWidth="827" pageHeight="1169" math="0" shadow="0">
      <root>
        <mxCell id="0" />
        <mxCell id="1" parent="0" />
        <mxCell id="r4G30qljet7kt2UvTnL6-1" value="Учёт заявок в кафе - кондитерскую&amp;nbsp;" style="rounded=0;whiteSpace=wrap;html=1;" vertex="1" parent="1">
          <mxGeometry x="350" y="140" width="380" height="210" as="geometry" />
        </mxCell>
        <mxCell id="r4G30qljet7kt2UvTnL6-3" value="" style="endArrow=classic;html=1;rounded=0;entryX=0.006;entryY=0.173;entryDx=0;entryDy=0;entryPerimeter=0;" edge="1" parent="1" target="r4G30qljet7kt2UvTnL6-1">
          <mxGeometry width="50" height="50" relative="1" as="geometry">
            <mxPoint x="220" y="176" as="sourcePoint" />
            <mxPoint x="300" y="280" as="targetPoint" />
          </mxGeometry>
        </mxCell>
        <mxCell id="r4G30qljet7kt2UvTnL6-4" value="Получение заявки" style="text;html=1;align=center;verticalAlign=middle;resizable=0;points=[];autosize=1;strokeColor=none;fillColor=none;" vertex="1" parent="1">
          <mxGeometry x="210" y="140" width="120" height="30" as="geometry" />
        </mxCell>
        <mxCell id="r4G30qljet7kt2UvTnL6-6" value="" style="endArrow=classic;html=1;rounded=0;entryX=0.006;entryY=0.173;entryDx=0;entryDy=0;entryPerimeter=0;" edge="1" parent="1">
          <mxGeometry width="50" height="50" relative="1" as="geometry">
            <mxPoint x="218" y="240" as="sourcePoint" />
            <mxPoint x="350" y="240" as="targetPoint" />
          </mxGeometry>
        </mxCell>
        <mxCell id="r4G30qljet7kt2UvTnL6-7" value="" style="endArrow=classic;html=1;rounded=0;exitX=1;exitY=0.476;exitDx=0;exitDy=0;exitPerimeter=0;" edge="1" parent="1" source="r4G30qljet7kt2UvTnL6-1">
          <mxGeometry width="50" height="50" relative="1" as="geometry">
            <mxPoint x="740" y="240" as="sourcePoint" />
            <mxPoint x="920" y="240" as="targetPoint" />
          </mxGeometry>
        </mxCell>
        <mxCell id="r4G30qljet7kt2UvTnL6-8" value="Заявка зарегистрирована в системе" style="text;html=1;align=center;verticalAlign=middle;resizable=0;points=[];autosize=1;strokeColor=none;fillColor=none;" vertex="1" parent="1">
          <mxGeometry x="720" y="210" width="230" height="30" as="geometry" />
        </mxCell>
        <mxCell id="r4G30qljet7kt2UvTnL6-10" value="" style="endArrow=classic;html=1;rounded=0;entryX=0.158;entryY=0;entryDx=0;entryDy=0;entryPerimeter=0;" edge="1" parent="1" target="r4G30qljet7kt2UvTnL6-1">
          <mxGeometry width="50" height="50" relative="1" as="geometry">
            <mxPoint x="410" y="-40" as="sourcePoint" />
            <mxPoint x="482" y="20" as="targetPoint" />
          </mxGeometry>
        </mxCell>
        <mxCell id="r4G30qljet7kt2UvTnL6-11" value="" style="endArrow=classic;html=1;rounded=0;entryX=0.134;entryY=1.016;entryDx=0;entryDy=0;entryPerimeter=0;" edge="1" parent="1" target="r4G30qljet7kt2UvTnL6-1">
          <mxGeometry width="50" height="50" relative="1" as="geometry">
            <mxPoint x="400" y="500" as="sourcePoint" />
            <mxPoint x="410" y="530" as="targetPoint" />
          </mxGeometry>
        </mxCell>
        <mxCell id="r4G30qljet7kt2UvTnL6-12" value="Администратор" style="text;html=1;align=center;verticalAlign=middle;resizable=0;points=[];autosize=1;strokeColor=none;fillColor=none;rotation=270;" vertex="1" parent="1">
          <mxGeometry x="330" y="410" width="110" height="30" as="geometry" />
        </mxCell>
        <mxCell id="r4G30qljet7kt2UvTnL6-14" value="" style="endArrow=classic;html=1;rounded=0;entryX=0.134;entryY=1.016;entryDx=0;entryDy=0;entryPerimeter=0;" edge="1" parent="1">
          <mxGeometry width="50" height="50" relative="1" as="geometry">
            <mxPoint x="680" y="498.5" as="sourcePoint" />
            <mxPoint x="681" y="351.5" as="targetPoint" />
          </mxGeometry>
        </mxCell>
        <mxCell id="r4G30qljet7kt2UvTnL6-15" value="Пользователь" style="text;html=1;align=center;verticalAlign=middle;resizable=0;points=[];autosize=1;strokeColor=none;fillColor=none;rotation=270;" vertex="1" parent="1">
          <mxGeometry x="610" y="410" width="100" height="30" as="geometry" />
        </mxCell>
        <mxCell id="r4G30qljet7kt2UvTnL6-17" value="" style="endArrow=classic;html=1;rounded=0;entryX=0.134;entryY=1.016;entryDx=0;entryDy=0;entryPerimeter=0;" edge="1" parent="1">
          <mxGeometry width="50" height="50" relative="1" as="geometry">
            <mxPoint x="539.5" y="498.5" as="sourcePoint" />
            <mxPoint x="540.5" y="351.5" as="targetPoint" />
          </mxGeometry>
        </mxCell>
        <mxCell id="r4G30qljet7kt2UvTnL6-18" value="Работники" style="text;html=1;align=center;verticalAlign=middle;resizable=0;points=[];autosize=1;strokeColor=none;fillColor=none;rotation=270;" vertex="1" parent="1">
          <mxGeometry x="480" y="410" width="80" height="30" as="geometry" />
        </mxCell>
        <mxCell id="r4G30qljet7kt2UvTnL6-19" value="Программное обеспечения&amp;nbsp;&lt;div&gt;для учета заявок&lt;/div&gt;" style="text;html=1;align=center;verticalAlign=middle;resizable=0;points=[];autosize=1;strokeColor=none;fillColor=none;rotation=270;" vertex="1" parent="1">
          <mxGeometry x="295" y="20" width="180" height="40" as="geometry" />
        </mxCell>
        <mxCell id="r4G30qljet7kt2UvTnL6-20" value="" style="endArrow=classic;html=1;rounded=0;entryX=0.158;entryY=0;entryDx=0;entryDy=0;entryPerimeter=0;" edge="1" parent="1">
          <mxGeometry width="50" height="50" relative="1" as="geometry">
            <mxPoint x="539.58" y="-40" as="sourcePoint" />
            <mxPoint x="539.58" y="140" as="targetPoint" />
          </mxGeometry>
        </mxCell>
        <mxCell id="r4G30qljet7kt2UvTnL6-21" value="Автоматизированные&amp;nbsp;&lt;div&gt;системы&lt;/div&gt;" style="text;html=1;align=center;verticalAlign=middle;resizable=0;points=[];autosize=1;strokeColor=none;fillColor=none;rotation=270;" vertex="1" parent="1">
          <mxGeometry x="440" y="15" width="150" height="40" as="geometry" />
        </mxCell>
        <mxCell id="r4G30qljet7kt2UvTnL6-22" value="" style="endArrow=classic;html=1;rounded=0;entryX=0.158;entryY=0;entryDx=0;entryDy=0;entryPerimeter=0;" edge="1" parent="1">
          <mxGeometry width="50" height="50" relative="1" as="geometry">
            <mxPoint x="680" y="-40" as="sourcePoint" />
            <mxPoint x="680" y="140" as="targetPoint" />
          </mxGeometry>
        </mxCell>
        <mxCell id="r4G30qljet7kt2UvTnL6-23" value="Механические&lt;div&gt;системы&lt;/div&gt;" style="text;html=1;align=center;verticalAlign=middle;resizable=0;points=[];autosize=1;strokeColor=none;fillColor=none;rotation=270;" vertex="1" parent="1">
          <mxGeometry x="610" y="20" width="100" height="40" as="geometry" />
        </mxCell>
        <mxCell id="r4G30qljet7kt2UvTnL6-24" value="Обработка заявки" style="text;html=1;align=center;verticalAlign=middle;resizable=0;points=[];autosize=1;strokeColor=none;fillColor=none;" vertex="1" parent="1">
          <mxGeometry x="210" y="200" width="120" height="30" as="geometry" />
        </mxCell>
        <mxCell id="r4G30qljet7kt2UvTnL6-25" value="Регистрация заявки" style="text;html=1;align=center;verticalAlign=middle;resizable=0;points=[];autosize=1;strokeColor=none;fillColor=none;" vertex="1" parent="1">
          <mxGeometry x="210" y="270" width="130" height="30" as="geometry" />
        </mxCell>
        <mxCell id="r4G30qljet7kt2UvTnL6-26" value="" style="endArrow=classic;html=1;rounded=0;entryX=0.006;entryY=0.173;entryDx=0;entryDy=0;entryPerimeter=0;" edge="1" parent="1">
          <mxGeometry width="50" height="50" relative="1" as="geometry">
            <mxPoint x="218" y="310" as="sourcePoint" />
            <mxPoint x="350" y="310" as="targetPoint" />
          </mxGeometry>
        </mxCell>
      </root>
    </mxGraphModel>
  </diagram>
</mxfile>
